<?xml version="1.0" standalone="no"?>
<!DOCTYPE svg PUBLIC "-//W3C//DTD SVG 20010904//EN"
 "http://www.w3.org/TR/2001/REC-SVG-20010904/DTD/svg10.dtd">
<svg version="1.0" xmlns="http://www.w3.org/2000/svg"
 width="600.000000pt" height="600.000000pt" viewBox="0 0 600.000000 600.000000"
 preserveAspectRatio="xMidYMid meet">

<g transform="translate(0.000000,600.000000) scale(0.100000,-0.100000)"
fill="#000000" stroke="none">
<path d="M4646 4358 c-9 -12 -16 -34 -16 -49 0 -24 -3 -26 -39 -25 -41 1 -81
-24 -81 -51 0 -8 13 -27 28 -43 l28 -28 -23 -26 c-31 -37 -30 -81 3 -102 l25
-17 -33 -34 c-18 -19 -76 -64 -128 -101 -89 -62 -470 -413 -470 -433 0 -5 -6
-9 -14 -9 -32 0 -73 -49 -79 -93 -3 -24 -20 -79 -37 -123 -32 -80 -71 -242
-63 -257 3 -4 12 -5 22 -2 16 5 16 2 0 -62 -21 -79 -24 -227 -8 -305 50 -233
217 -436 459 -558 36 -18 67 -34 68 -35 2 -2 -10 -24 -28 -50 -107 -155 -132
-325 -48 -325 24 0 90 34 108 55 7 9 22 21 32 26 18 10 19 7 18 -43 -3 -101
-1 -109 35 -145 21 -21 37 -48 41 -71 9 -53 50 -119 84 -137 62 -32 126 -13
150 44 l12 29 42 -44 c36 -37 48 -44 82 -44 70 0 114 54 114 139 0 36 3 40 48
62 60 30 74 58 69 131 l-5 56 32 -19 c70 -43 123 -9 113 74 -7 58 -40 142 -82
205 -19 30 -35 58 -35 62 0 5 30 23 66 42 157 79 309 239 372 391 44 105 67
244 55 336 -10 77 -12 75 43 54 6 -2 14 3 17 11 19 50 -62 431 -96 453 -7 5
-23 28 -36 53 -50 94 -134 211 -212 296 -45 49 -112 126 -150 170 -37 45 -102
107 -143 138 -51 38 -73 61 -70 71 4 8 -3 30 -14 50 l-21 34 30 22 c48 34 34
78 -34 102 -4 1 -1 18 7 38 12 28 12 40 3 60 -16 31 -65 37 -96 11 -23 -18
-24 -18 -51 10 -34 34 -73 36 -94 6z m86 -47 c26 -53 35 -57 52 -23 15 29 34
42 62 42 18 0 18 -37 -1 -70 -21 -37 -18 -49 13 -56 45 -11 55 -24 36 -45 -10
-11 -22 -19 -29 -19 -6 0 -20 -6 -31 -14 -18 -14 -17 -16 20 -48 45 -39 42
-58 -10 -58 -24 0 -42 8 -58 25 -32 35 -45 31 -52 -15 -4 -22 -12 -44 -18 -50
-19 -15 -53 15 -60 55 -7 37 -23 44 -55 23 -24 -14 -51 -4 -51 20 0 20 31 52
68 71 32 17 27 28 -20 43 -30 10 -44 21 -46 35 -4 27 31 36 74 18 40 -16 47
-8 38 40 -8 47 1 67 28 63 14 -2 30 -16 40 -37z m-90 -329 c17 -28 17 -29 -12
-57 -17 -16 -30 -32 -30 -37 0 -16 29 -7 59 18 l31 26 -10 -27 c-26 -68 1 -87
29 -20 9 22 23 51 31 65 l14 25 7 -40 c5 -22 8 -59 8 -82 1 -33 5 -43 17 -43
14 0 16 11 12 75 -2 41 -3 75 -2 75 1 0 19 -29 40 -65 22 -35 45 -65 52 -65
19 0 14 23 -17 72 -55 87 -55 87 -18 86 45 -1 141 -71 224 -165 37 -42 108
-119 156 -172 77 -83 234 -297 225 -307 -6 -6 -134 35 -220 70 -48 20 -107 41
-130 46 -268 64 -459 83 -763 76 -174 -4 -196 -6 -260 -30 l-70 -26 145 140
c133 129 229 210 335 282 23 15 58 46 80 68 21 22 42 40 45 40 3 0 13 -13 22
-28z m71 -488 c12 -4 16 -13 11 -26 -12 -40 -22 -193 -13 -203 15 -15 29 14
29 59 0 22 5 68 11 103 13 75 3 73 186 37 l131 -26 -5 -119 c-5 -102 -4 -119
9 -119 12 0 16 21 20 110 3 61 7 113 10 115 4 5 260 -89 277 -102 7 -5 39
-167 46 -236 8 -72 20 -92 33 -56 9 22 4 61 -24 198 -8 41 -13 76 -10 78 2 2
22 -5 44 -16 35 -18 43 -28 61 -83 27 -82 61 -243 61 -292 0 -36 -1 -38 -26
-32 -14 4 -62 25 -107 46 l-82 40 -5 82 c-4 65 -8 83 -20 83 -12 0 -14 -14
-11 -79 l3 -79 -57 8 c-81 10 -150 29 -257 71 -89 35 -101 37 -258 45 -91 4
-195 11 -232 15 -79 8 -79 8 -48 106 23 73 27 142 8 136 -7 -3 -14 -18 -16
-34 -2 -16 -9 -49 -17 -74 -8 -25 -19 -64 -25 -87 -9 -34 -15 -43 -33 -43 -12
0 -71 -13 -130 -29 -67 -19 -149 -32 -214 -37 -100 -7 -105 -6 -99 12 3 10 12
54 21 97 9 44 20 90 26 104 13 34 11 65 -3 61 -16 -6 -35 -65 -58 -177 -11
-52 -23 -98 -28 -103 -7 -7 -112 -38 -131 -38 -14 0 16 122 49 203 17 42 35
99 38 124 6 37 13 50 32 59 38 18 198 84 204 84 11 0 5 -56 -19 -175 -15 -74
-20 -124 -15 -129 20 -20 32 21 58 199 l18 120 49 6 c65 8 485 2 508 -7z m2
-416 c96 3 217 -19 323 -59 59 -23 155 -50 214 -60 70 -13 135 -32 187 -55 68
-32 80 -40 85 -66 11 -57 6 -224 -9 -283 -54 -212 -229 -407 -453 -504 -140
-62 -209 -75 -392 -75 -141 0 -177 3 -250 23 -175 47 -324 134 -441 258 -131
139 -189 275 -196 458 -4 94 -1 122 19 190 l23 79 45 14 c25 7 104 17 175 23
120 9 178 20 295 55 34 11 80 12 190 7 80 -4 163 -6 185 -5z m389 -1198 c59
-112 71 -200 27 -200 -27 0 -95 53 -119 92 -12 19 -35 72 -51 116 l-29 82 47
14 c45 14 46 14 68 -12 13 -15 38 -56 57 -92z m-711 94 c32 -8 32 -8 8 -101
-14 -52 -29 -84 -55 -115 -39 -45 -110 -98 -132 -98 -46 0 -10 146 63 258 39
60 51 72 68 67 11 -3 32 -8 48 -11z m277 -39 c36 0 101 4 146 8 l81 9 23 -64
c13 -34 36 -89 52 -121 56 -113 56 -213 0 -236 -72 -28 -128 -34 -295 -29
-241 7 -276 24 -277 132 0 47 36 247 55 304 3 9 22 10 77 5 40 -5 102 -8 138
-8z m-57 -471 c54 -6 57 -8 57 -34 0 -15 -10 -42 -23 -61 -52 -77 -143 -32
-171 85 l-7 28 43 -5 c24 -4 69 -9 101 -13z m285 -39 c-8 -64 -31 -95 -72 -95
-18 0 -45 9 -58 20 -24 19 -58 76 -58 99 0 6 29 12 68 14 37 2 80 4 96 5 28 2
29 1 24 -43z"/>
<path d="M3984 2846 c-81 -81 -11 -204 91 -162 68 29 84 132 28 176 -39 30
-79 26 -119 -14z m71 -22 c20 -20 16 -53 -7 -68 -40 -24 -80 44 -42 71 23 17
29 16 49 -3z m55 -79 c0 -8 -7 -15 -15 -15 -8 0 -15 7 -15 15 0 8 7 15 15 15
8 0 15 -7 15 -15z"/>
<path d="M4841 2851 c-27 -25 -31 -36 -31 -78 0 -40 5 -54 25 -73 61 -58 155
-7 155 84 0 89 -84 127 -149 67z m63 -24 c26 -19 18 -71 -12 -75 -46 -7 -69
40 -36 72 19 19 25 20 48 3z m56 -82 c0 -8 -4 -15 -10 -15 -5 0 -10 7 -10 15
0 8 5 15 10 15 6 0 10 -7 10 -15z"/>
<path d="M4397 2802 c-10 -10 -17 -27 -17 -37 0 -17 3 -16 26 6 l25 24 18 -24
c24 -31 39 -9 17 24 -19 30 -47 32 -69 7z"/>
<path d="M4357 2504 c-3 -4 -1 -16 5 -28 29 -58 101 -74 143 -31 24 23 34 55
17 55 -5 0 -18 -11 -30 -25 -12 -14 -33 -25 -47 -25 -23 0 -65 34 -65 52 0 10
-14 11 -23 2z"/>
<path d="M1073 4040 c-179 -25 -287 -71 -398 -169 -158 -139 -226 -247 -269
-426 -62 -257 -76 -327 -87 -422 -10 -85 -15 -102 -30 -106 -26 -7 -38 -45
-27 -82 5 -16 10 -43 12 -59 1 -18 14 -38 32 -53 16 -13 40 -35 54 -48 30 -30
59 -32 93 -5 14 11 30 20 36 20 6 0 18 11 27 25 14 21 15 31 5 51 -6 14 -11
38 -11 54 0 20 -9 36 -31 53 l-31 24 48 92 c27 51 50 87 52 81 3 -7 -1 -46 -8
-88 -12 -67 -12 -76 3 -87 14 -10 15 -20 6 -76 -18 -113 11 -280 70 -397 76
-151 224 -292 384 -366 20 -9 37 -19 37 -22 0 -2 -21 -40 -46 -83 -93 -161
-100 -281 -16 -281 15 0 41 8 57 18 l30 19 0 -68 c0 -77 17 -104 78 -125 30
-10 32 -15 38 -65 10 -91 43 -129 113 -129 34 0 46 7 83 45 24 25 43 39 43 31
0 -8 13 -28 29 -45 22 -24 38 -31 66 -31 73 0 124 49 144 142 7 30 23 58 47
82 l36 36 -3 84 c-4 94 -10 91 65 29 53 -44 103 -54 128 -23 25 31 24 92 -2
115 -21 19 -21 18 -14 -38 6 -49 4 -58 -11 -63 -26 -10 -78 21 -133 80 -42 45
-51 61 -65 125 -10 40 -17 87 -17 103 0 24 -4 29 -16 24 -88 -34 -348 -32
-484 4 -179 46 -355 157 -461 290 -57 71 -121 197 -140 275 -13 55 -16 222 -5
273 7 30 10 32 51 32 64 0 120 24 213 91 67 50 99 65 160 81 43 11 113 30 157
43 72 21 97 23 260 21 268 -3 486 -40 749 -128 125 -41 131 -46 144 -114 29
-142 7 -289 -62 -428 -40 -79 -45 -109 -15 -90 21 12 86 167 103 241 19 84 20
181 5 269 -9 55 -9 66 5 79 26 26 19 66 -39 237 -61 178 -100 241 -158 256
-33 9 -36 13 -117 144 -54 88 -202 245 -284 300 -78 54 -184 102 -281 128 -91
24 -298 35 -402 20z m687 -571 c67 -33 100 -37 235 -29 33 2 86 -3 119 -10 52
-12 62 -19 92 -59 19 -27 47 -88 65 -146 18 -55 41 -118 51 -140 22 -51 24
-105 2 -105 -8 0 -50 13 -92 29 -259 97 -518 143 -812 147 -178 2 -189 1 -275
-26 -49 -16 -116 -34 -148 -40 -44 -9 -79 -26 -135 -66 -114 -80 -173 -106
-239 -105 -31 0 -57 2 -60 4 -2 3 1 24 6 48 6 24 11 89 11 144 0 173 19 205
137 231 40 9 108 34 150 55 62 31 88 39 132 39 31 0 99 11 151 25 106 27 145
30 234 14 48 -8 75 -7 126 4 111 25 175 22 250 -14z m-1333 -588 c2 -10 16
-24 30 -30 20 -9 24 -16 19 -37 -5 -18 -2 -32 10 -45 19 -22 12 -49 -13 -49
-10 0 -26 -9 -36 -20 -21 -25 -47 -26 -54 -1 -3 11 -18 24 -33 30 -30 10 -55
45 -45 61 3 5 -1 23 -10 39 -22 43 -10 64 31 57 18 -4 35 -2 39 4 11 18 56 12
62 -9z m707 -877 c37 -13 46 -20 41 -33 -4 -9 -21 -52 -38 -96 -38 -98 -110
-178 -155 -173 -26 3 -27 6 -26 54 1 28 11 73 23 100 24 53 92 164 102 164 3
0 27 -7 53 -16z m251 -41 c72 -3 160 -1 198 4 l67 10 10 -38 c45 -166 61 -319
39 -361 -6 -11 -26 -26 -44 -34 -54 -22 -246 -35 -367 -24 -232 20 -245 58
-122 345 49 113 52 118 73 110 9 -4 75 -9 146 -12z m245 -483 c0 -64 -62 -133
-114 -128 -36 4 -76 56 -76 98 0 30 -7 28 178 49 6 0 12 -8 12 -19z m-293 0
c62 0 64 -1 58 -22 -13 -43 -55 -98 -80 -104 -62 -15 -105 29 -105 107 0 30 2
31 31 25 17 -3 60 -6 96 -6z"/>
<path d="M1145 2875 c-37 -36 -35 -104 4 -147 77 -86 189 8 139 117 -25 55
-103 71 -143 30z m109 -31 c19 -18 20 -28 6 -55 -22 -39 -86 -12 -72 31 5 16
31 40 43 40 4 0 15 -7 23 -16z m-84 -79 c0 -8 -4 -15 -9 -15 -13 0 -22 16 -14
24 11 11 23 6 23 -9z"/>
<path d="M1999 2871 c-51 -51 -29 -142 41 -171 29 -12 37 -11 69 6 62 33 67
109 11 165 -39 39 -82 39 -121 0z m105 -24 c38 -27 -2 -95 -41 -71 -24 15 -28
48 -8 68 20 19 26 20 49 3z m-82 -82 c0 -5 -5 -11 -11 -13 -6 -2 -11 4 -11 13
0 9 5 15 11 13 6 -2 11 -8 11 -13z"/>
<path d="M1645 2820 c-11 -12 -15 -26 -11 -37 7 -16 9 -16 24 5 16 20 19 21
37 8 25 -19 35 -20 35 -2 0 16 -37 46 -56 46 -6 0 -19 -9 -29 -20z"/>
<path d="M1719 2508 c-24 -46 -68 -51 -103 -13 -13 14 -26 25 -30 25 -15 0 -4
-33 19 -55 42 -43 114 -27 143 31 11 21 7 34 -9 34 -5 0 -14 -10 -20 -22z"/>
</g>
</svg>
